<svg width="100" height="100" viewBox="0 0 100 100" fill="none" xmlns="http://www.w3.org/2000/svg">
<rect width="100" height="100" rx="50" fill="white"/>
<path d="M60.9376 65.6103V32.0303C60.9358 31.4092 60.6883 30.8141 60.2491 30.375C59.81 29.9358 59.2149 29.6883 58.5938 29.6865H32.0313C31.4103 29.6883 30.8152 29.9358 30.376 30.375C29.9369 30.8141 29.6894 31.4092 29.6876 32.0303V66.4053C29.6907 67.4403 30.1032 68.4321 30.8351 69.164C31.567 69.8959 32.5588 70.3084 33.5938 70.3115H65.6251" stroke="#05422C" stroke-width="3" stroke-linejoin="round"/>
<path d="M65.6251 70.3115C64.3819 70.3115 63.1896 69.8177 62.3105 68.9386C61.4314 68.0595 60.9376 66.8672 60.9376 65.624V37.499H67.9688C68.5904 37.499 69.1866 37.746 69.6261 38.1855C70.0656 38.625 70.3126 39.2212 70.3126 39.8428V65.624C70.3126 66.8672 69.8187 68.0595 68.9396 68.9386C68.0606 69.8177 66.8683 70.3115 65.6251 70.3115Z" stroke="#05422C" stroke-width="3" stroke-linejoin="round"/>
<path d="M35.9378 62.499H54.6878M48.4378 37.499H54.6878H48.4378ZM48.4378 43.749H54.6878H48.4378ZM35.9378 49.999H54.6878H35.9378ZM35.9378 56.249H54.6878H35.9378Z" stroke="#37424D" stroke-width="3" stroke-linecap="round" stroke-linejoin="round"/>
<path d="M42.1877 45.3059H35.9377C35.5233 45.3059 35.1259 45.1413 34.8329 44.8483C34.5399 44.5552 34.3752 44.1578 34.3752 43.7434V37.4934C34.3752 37.079 34.5399 36.6816 34.8329 36.3886C35.1259 36.0955 35.5233 35.9309 35.9377 35.9309H42.1877C42.6021 35.9309 42.9996 36.0955 43.2926 36.3886C43.5856 36.6816 43.7502 37.079 43.7502 37.4934V43.7434C43.7502 44.1578 43.5856 44.5552 43.2926 44.8483C42.9996 45.1413 42.6021 45.3059 42.1877 45.3059Z" fill="#37424D"/>
<rect x="30" y="84" width="40" height="4" rx="2" fill="#F2F6F4"/>
</svg>
