<svg width="48" height="48" viewBox="0 0 48 48" fill="none" xmlns="http://www.w3.org/2000/svg">
<rect width="48" height="48" rx="24" fill="#F2F6F4"/>
<path d="M15.9059 19.8198L24 24.504L32.0392 19.8473" stroke="#05422C" stroke-width="1.5" stroke-linecap="round" stroke-linejoin="round"/>
<path d="M24 32.809V24.4949" stroke="#05422C" stroke-width="1.5" stroke-linecap="round" stroke-linejoin="round"/>
<path d="M32.8092 21.4058V26.5941C32.8092 26.64 32.8092 26.6766 32.8 26.7224C32.1583 26.1632 31.3333 25.8333 30.4167 25.8333C29.555 25.8333 28.7575 26.1358 28.125 26.6399C27.2817 27.3091 26.75 28.3449 26.75 29.4999C26.75 30.1874 26.9425 30.8383 27.2817 31.3883C27.3642 31.5349 27.465 31.6724 27.575 31.8008L25.8975 32.7266C24.8525 33.3133 23.1475 33.3133 22.1025 32.7266L17.2075 30.0133C16.0983 29.3991 15.1909 27.8591 15.1909 26.5941V21.4058C15.1909 20.1408 16.0983 18.6008 17.2075 17.9866L22.1025 15.2733C23.1475 14.6866 24.8525 14.6866 25.8975 15.2733L30.7925 17.9866C31.9017 18.6008 32.8092 20.1408 32.8092 21.4058Z" stroke="#05422C" stroke-width="1.5" stroke-linecap="round" stroke-linejoin="round"/>
<path d="M34.0833 29.4999C34.0833 30.5999 33.5975 31.5808 32.8367 32.2499C32.1858 32.8183 31.3425 33.1666 30.4167 33.1666C28.3908 33.1666 26.75 31.5258 26.75 29.4999C26.75 28.3449 27.2817 27.3091 28.125 26.6399C28.7575 26.1358 29.555 25.8333 30.4167 25.8333C32.4425 25.8333 34.0833 27.4741 34.0833 29.4999Z" stroke="#05422C" stroke-width="1.5" stroke-miterlimit="10" stroke-linecap="round" stroke-linejoin="round"/>
<path d="M30.6458 28.354V29.729L29.5 30.4165" stroke="#05422C" stroke-width="1.5" stroke-miterlimit="10" stroke-linecap="round" stroke-linejoin="round"/>
</svg>
