<svg width="48" height="48" viewBox="0 0 48 48" fill="none" xmlns="http://www.w3.org/2000/svg">
<rect width="48" height="48" rx="24" fill="#F2F6F4"/>
<path d="M26.75 14.8333V23.9999C26.75 25.0083 25.925 25.8333 24.9166 25.8333H14.8333V19.9849C15.5025 20.7824 16.5292 21.2774 17.6658 21.2499C18.5917 21.2316 19.4258 20.8741 20.0491 20.2783C20.3333 20.0399 20.5717 19.7374 20.755 19.4074C21.085 18.8482 21.2683 18.1882 21.25 17.5007C21.2225 16.4282 20.7458 15.4841 20.0033 14.8333H26.75Z" stroke="#05422C" stroke-width="1.5" stroke-linecap="round" stroke-linejoin="round"/>
<path d="M33.1666 25.8333V28.5833C33.1666 30.1049 31.9383 31.3333 30.4166 31.3333H29.5C29.5 30.3249 28.675 29.4999 27.6666 29.4999C26.6583 29.4999 25.8333 30.3249 25.8333 31.3333H22.1666C22.1666 30.3249 21.3416 29.4999 20.3333 29.4999C19.325 29.4999 18.5 30.3249 18.5 31.3333H17.5833C16.0616 31.3333 14.8333 30.1049 14.8333 28.5833V25.8333H24.9166C25.925 25.8333 26.75 25.0083 26.75 23.9999V17.5833H28.4367C29.0967 17.5833 29.7017 17.9408 30.0317 18.5091L31.5991 21.2499H30.4166C29.9125 21.2499 29.5 21.6624 29.5 22.1666V24.9166C29.5 25.4208 29.9125 25.8333 30.4166 25.8333H33.1666Z" stroke="#05422C" stroke-width="1.5" stroke-linecap="round" stroke-linejoin="round"/>
<path d="M20.3333 33.1667C21.3459 33.1667 22.1667 32.3459 22.1667 31.3333C22.1667 30.3208 21.3459 29.5 20.3333 29.5C19.3208 29.5 18.5 30.3208 18.5 31.3333C18.5 32.3459 19.3208 33.1667 20.3333 33.1667Z" stroke="#05422C" stroke-width="1.5" stroke-linecap="round" stroke-linejoin="round"/>
<path d="M27.6667 33.1667C28.6792 33.1667 29.5 32.3459 29.5 31.3333C29.5 30.3208 28.6792 29.5 27.6667 29.5C26.6542 29.5 25.8333 30.3208 25.8333 31.3333C25.8333 32.3459 26.6542 33.1667 27.6667 33.1667Z" stroke="#05422C" stroke-width="1.5" stroke-linecap="round" stroke-linejoin="round"/>
<path d="M33.1667 24V25.8333H30.4167C29.9125 25.8333 29.5 25.4208 29.5 24.9167V22.1667C29.5 21.6625 29.9125 21.25 30.4167 21.25H31.5991L33.1667 24Z" stroke="#05422C" stroke-width="1.5" stroke-linecap="round" stroke-linejoin="round"/>
<path d="M21.25 17.5834C21.25 18.6834 20.7642 19.6642 20.0034 20.3334C19.3525 20.9017 18.5092 21.2501 17.5834 21.2501C15.5575 21.2501 13.9167 19.6092 13.9167 17.5834C13.9167 16.4284 14.4484 15.3926 15.2917 14.7234C15.9242 14.2193 16.7217 13.9167 17.5834 13.9167C19.6092 13.9167 21.25 15.5576 21.25 17.5834Z" stroke="#05422C" stroke-width="1.5" stroke-miterlimit="10" stroke-linecap="round" stroke-linejoin="round"/>
<path d="M17.8125 16.4375V17.8125L16.6667 18.5" stroke="#05422C" stroke-width="1.5" stroke-miterlimit="10" stroke-linecap="round" stroke-linejoin="round"/>
</svg>
