<svg width="100" height="100" viewBox="0 0 100 100" fill="none" xmlns="http://www.w3.org/2000/svg">
<rect width="100" height="100" rx="50" fill="white"/>
<path d="M50.6077 33.0765C50.4449 32.9207 50.2282 32.8337 50.0029 32.8337C49.7775 32.8337 49.5609 32.9207 49.398 33.0765L29.2621 52.3122C29.1766 52.394 29.1085 52.4923 29.0621 52.6012C29.0157 52.71 28.9918 52.8272 28.9919 52.9455L28.9886 70.9989C28.9886 71.9272 29.3574 72.8174 30.0138 73.4738C30.6702 74.1302 31.5604 74.4989 32.4886 74.4989H42.9996C43.4637 74.4989 43.9088 74.3146 44.237 73.9864C44.5652 73.6582 44.7496 73.2131 44.7496 72.7489V57.8739C44.7496 57.6419 44.8418 57.4193 45.0059 57.2552C45.17 57.0911 45.3925 56.9989 45.6246 56.9989H54.3746C54.6066 56.9989 54.8292 57.0911 54.9933 57.2552C55.1574 57.4193 55.2496 57.6419 55.2496 57.8739V72.7489C55.2496 73.2131 55.434 73.6582 55.7621 73.9864C56.0903 74.3146 56.5355 74.4989 56.9996 74.4989H67.5061C68.4344 74.4989 69.3246 74.1302 69.981 73.4738C70.6374 72.8174 71.0061 71.9272 71.0061 70.9989V52.9455C71.0063 52.8272 70.9824 52.71 70.936 52.6012C70.8895 52.4923 70.8215 52.394 70.736 52.3122L50.6077 33.0765Z" fill="#05422C"/>
<path d="M75.693 48.7076L67.5117 40.8807V29.0037C67.5117 28.5395 67.3273 28.0944 66.9991 27.7662C66.671 27.438 66.2258 27.2537 65.7617 27.2537H60.5117C60.0476 27.2537 59.6025 27.438 59.2743 27.7662C58.9461 28.0944 58.7617 28.5395 58.7617 29.0037V32.5037L52.4267 26.4465C51.8339 25.8471 50.9523 25.5037 49.9997 25.5037C49.0503 25.5037 48.1709 25.8471 47.5781 26.4476L24.3141 48.7054C23.6337 49.3616 23.5484 50.4412 24.1675 51.1521C24.3229 51.3316 24.5133 51.4775 24.7269 51.581C24.9406 51.6846 25.1731 51.7436 25.4103 51.7544C25.6474 51.7653 25.8843 51.7277 26.1065 51.6441C26.3287 51.5605 26.5316 51.4326 26.7028 51.268L49.3981 29.5812C49.561 29.4254 49.7776 29.3385 50.003 29.3385C50.2283 29.3385 50.445 29.4254 50.6078 29.5812L73.3053 51.268C73.6396 51.5887 74.0875 51.7637 74.5506 51.7546C75.0138 51.7456 75.4545 51.5533 75.7761 51.2199C76.4476 50.5243 76.3919 49.3758 75.693 48.7076Z" fill="#C3D2CC"/>
<rect x="30" y="84" width="40" height="4" rx="2" fill="#F2F6F4"/>
</svg>
