<svg width="189" height="45" viewBox="0 0 189 45" fill="none" xmlns="http://www.w3.org/2000/svg">
<g clip-path="url(#clip0_13_170)">
<path d="M76.2636 29.4718H71.5451L71.1799 20.9548C71.1238 19.273 71.0582 17.9982 70.9833 17.1302H70.8991C70.6744 17.8174 70.4122 18.8843 70.1127 20.3309L69.9722 21.009L68.0343 29.4718H63.3157L61.6867 21.8499L61.4059 20.4936C61.0127 18.8119 60.7412 17.6908 60.5914 17.1302H60.5071C60.4322 18.0344 60.3667 19.5081 60.3105 21.5515C60.2918 21.6781 60.2824 21.877 60.2824 22.1482L60.0296 29.4718H55.283L55.9571 14.0109H63.9898L65.3661 20.6835L65.7031 22.4737C65.8529 21.9131 65.9933 21.2893 66.1244 20.6021L67.4164 14.0109H75.6176L76.2636 29.4718Z" fill="#3EAC62"/>
<path d="M86.2757 29.8244C83.4858 29.8244 81.3887 29.1915 79.9844 27.9257C78.5988 26.6418 77.906 24.5894 77.906 21.7685C77.906 19.0018 78.6737 16.9856 80.2091 15.7197C81.7445 14.4539 83.7761 13.821 86.3038 13.821C91.6215 13.821 94.2804 16.3798 94.2804 21.4972C94.2804 24.0831 93.625 26.1174 92.3143 27.6002C91.0224 29.083 89.0095 29.8244 86.2757 29.8244ZM86.1634 26.6237C86.6877 26.6237 87.1277 26.5424 87.4835 26.3796C87.8392 26.1988 88.1201 25.8914 88.3261 25.4574C88.7193 24.716 88.9159 23.5044 88.9159 21.8227C88.9159 20.1772 88.7193 18.9837 88.3261 18.2423C87.9328 17.4828 87.212 17.085 86.1634 17.0488C85.7702 17.0488 85.3583 17.0941 84.9276 17.1845C84.5157 17.2568 84.2535 17.3653 84.1412 17.51C83.9165 17.7631 83.7386 18.3056 83.6075 19.1374C83.4952 19.9511 83.439 20.8463 83.439 21.8227C83.439 23.3417 83.5888 24.4538 83.8884 25.159C84.0944 25.6834 84.3846 26.0632 84.7591 26.2983C85.1336 26.5152 85.6017 26.6237 86.1634 26.6237Z" fill="#3EAC62"/>
<path d="M101.206 23.2332V29.4718H96.5154V14.0109H101.262L105.503 20.2495C106.14 21.1717 106.627 21.9493 106.964 22.5822H107.048V19.9783V14.0109H111.71V29.4718H106.936L102.582 22.962L101.318 21.1175H101.234L101.206 23.2332Z" fill="#3EAC62"/>
<path d="M119.087 18.1881C119.087 18.5678 119.284 18.8662 119.677 19.0832C120.089 19.3002 120.725 19.5352 121.587 19.7884C122.617 20.1139 123.459 20.4303 124.115 20.7378C124.789 21.0452 125.369 21.5244 125.856 22.1753C126.361 22.8263 126.614 23.6762 126.614 24.725C126.614 28.0885 124.349 29.7702 119.817 29.7702C119.068 29.7702 118.151 29.7069 117.065 29.5803C115.998 29.4537 115.024 29.291 114.144 29.0921C114.181 28.7123 114.256 28.1608 114.369 27.4375C114.5 26.6961 114.621 26.1445 114.734 25.7829C115.389 25.8733 116.372 25.9818 117.683 26.1084C119.012 26.235 120.014 26.2983 120.688 26.2983C121.081 26.2983 121.315 26.2711 121.39 26.2169C121.503 26.1445 121.587 26.027 121.643 25.8643C121.718 25.6834 121.755 25.5297 121.755 25.4031C121.755 25.0415 121.577 24.7702 121.222 24.5894C120.866 24.3905 120.257 24.1554 119.396 23.8842C118.366 23.5768 117.514 23.2603 116.84 22.9348C116.166 22.6093 115.576 22.103 115.071 21.4159C114.565 20.7287 114.312 19.8246 114.312 18.7034C114.312 17.9078 114.5 17.1302 114.874 16.3707C115.249 15.5932 115.632 15.0688 116.026 14.7975C116.325 14.5986 116.943 14.4087 117.879 14.2279C118.816 14.0471 119.696 13.9567 120.519 13.9567C122.617 13.9567 124.33 14.1465 125.659 14.5263C125.641 14.8879 125.575 15.3852 125.463 16.0181C125.369 16.651 125.266 17.2297 125.154 17.7541L124.508 17.727C122.074 17.5642 120.519 17.4828 119.845 17.4828C119.565 17.4828 119.405 17.4919 119.368 17.51C119.293 17.5461 119.227 17.6275 119.171 17.7541C119.115 17.8807 119.087 18.0253 119.087 18.1881Z" fill="#3EAC62"/>
<path d="M137.004 29.4718H131.949V17.4015H127.427V14.0109H141.526V17.4015H137.004V29.4718Z" fill="#3EAC62"/>
<path d="M143.003 14.0109H154.659V17.2658H148.058V20.0868H153.62V23.0162H148.058V26.1626H154.631V29.4718H143.003V14.0109Z" fill="#3EAC62"/>
<path d="M171.379 29.4718H166.071L165.116 25.5659C165.079 25.4212 165.013 25.1771 164.92 24.8335C164.845 24.4719 164.751 24.2097 164.639 24.0469C164.526 23.8661 164.367 23.7486 164.161 23.6943C163.637 23.7124 162.869 23.7214 161.858 23.7214V29.4718H156.803V14.1465C159.068 13.9838 161.184 13.9024 163.15 13.9024C164.929 13.9024 166.371 14.0471 167.475 14.3364C168.58 14.6077 169.404 15.0868 169.947 15.774C170.509 16.4431 170.79 17.3653 170.79 18.5407C170.79 19.6437 170.527 20.5117 170.003 21.1446C169.479 21.7594 168.636 22.1301 167.475 22.2567V22.4195C168.131 22.4737 168.674 22.6817 169.104 23.0433C169.554 23.3869 169.853 23.8299 170.003 24.3724L171.379 29.4718ZM161.858 20.6564C162.027 20.6745 162.354 20.6835 162.841 20.6835C164.283 20.6835 165.125 20.566 165.369 20.3309C165.594 20.1139 165.706 19.6076 165.706 18.8119C165.706 18.0705 165.5 17.5642 165.088 17.293C164.695 17.0217 164.039 16.8861 163.122 16.8861C162.916 16.8861 162.495 16.9042 161.858 16.9403V20.6564Z" fill="#3EAC62"/>
<path d="M182.363 26.0813H177.701L176.858 29.4718H171.691L176.858 14.0109H183.459L188.402 29.4718H183.206L182.363 26.0813ZM180.004 17.3472L178.347 23.0705H181.689L180.116 17.3472H180.004Z" fill="#3EAC62"/>
<path fill-rule="evenodd" clip-rule="evenodd" d="M22.1865 44.373C34.4398 44.373 44.373 34.4398 44.373 22.1865C44.373 9.93323 34.4398 0 22.1865 0C9.93323 0 0 9.93323 0 22.1865C0 30.5753 4.65577 37.8768 11.5243 41.6478L8.52113 37.3366L7.22102 33.907L14.6924 36.6488L15.4359 34.6229L6.2088 31.2368L4.06671 25.5861L17.0092 30.3357L17.7527 28.3098L3.05449 22.916L3.04059 22.8793L4.60389 18.6193L19.326 24.0219L20.0695 21.996L5.34734 16.5934L6.92079 12.3058L21.6429 17.7084L22.3863 15.6825L8.20543 10.4785L14.1793 7.17593L22.7652 10.3267L24.3525 14.5141L26.7437 7.99257L28.7329 8.72208L26.3433 15.2392L30.2567 13.0757L38.8426 16.2265L41.2622 22.6092L27.0815 17.4053L26.338 19.4312L41.06 24.8337L39.4865 29.1214L24.7646 23.7189L24.0212 25.7448L38.743 31.1473L37.1798 35.4072L37.1453 35.4263L22.4478 30.0327L21.7044 32.0586L34.6462 36.8079L29.3575 39.7316L20.131 36.3458L19.3876 38.3716L26.8584 41.1132L23.6486 42.8878L18.9346 44.1364C19.996 44.2923 21.0818 44.373 22.1865 44.373Z" fill="#3EAC62"/>
</g>
<defs>
<clipPath id="clip0_13_170">
<rect width="188.402" height="44.373" fill="white"/>
</clipPath>
</defs>
</svg>
