<svg width="26" height="28" viewBox="0 0 26 28" fill="none" xmlns="http://www.w3.org/2000/svg">
<path fill-rule="evenodd" clip-rule="evenodd" d="M13.6522 28L12.149 27.9997L12.1504 23.0716L10.0696 25.4727L3.58072 25.4727L0.408975 21.8127L11.1266 21.8127L11.1266 20.2817L5.31732e-07 20.2817L3.92329e-07 17.0411L11.1266 17.0411L11.1266 15.5101L3.26465e-07 15.5101L1.8797e-07 12.2906L0.0182916 12.2695L11.1266 12.2695L11.1266 10.7384L1.34516 10.7384L4.1531 7.49832L11.1266 7.49832L11.1266 5.96724L5.47996 5.96724L7.18416 4.00075L12.9006 3.24962e-07L18.617 4.00075L20.3212 5.96725L14.6754 5.96725L14.6754 7.49833L21.648 7.49833L24.456 10.7385L14.6754 10.7385L14.6754 12.2695L25.7828 12.2695L25.8011 12.2906L25.8011 15.5101L14.6754 15.5101L14.6754 17.0411L25.8011 17.0411L25.8011 20.2817L14.6754 20.2817L14.6754 21.8128L25.3921 21.8128L22.2204 25.4727L15.7315 25.4727L13.6536 23.075L13.6522 28Z" fill="#3EAC62"/>
</svg>
