<svg width="111" height="50" viewBox="0 0 111 50" fill="none" xmlns="http://www.w3.org/2000/svg">
<path d="M86 50C99.8071 50 111 38.8071 111 25C111 11.1929 99.8071 0 86 0C72.1929 0 61 11.1929 61 25C61 38.8071 72.1929 50 86 50Z" fill="black" fill-opacity="0.2"/>
<path d="M83.285 33.699C83.4552 33.8731 83.6832 33.9791 83.926 33.9972C84.1688 34.0152 84.4099 33.944 84.604 33.797L84.699 33.715L92.699 25.898C92.8712 25.7297 92.9769 25.505 92.9968 25.2651C93.0166 25.0252 92.9492 24.7862 92.807 24.592L92.727 24.496L85.004 16.314C84.8295 16.1289 84.591 16.0173 84.337 16.0018C84.0831 15.9864 83.8328 16.0684 83.6372 16.231C83.4416 16.3936 83.3153 16.6247 83.284 16.8772C83.2528 17.1297 83.3189 17.3846 83.469 17.59L83.549 17.686L90.598 25.155L83.301 32.285C83.1269 32.4552 83.0209 32.6831 83.0028 32.926C82.9848 33.1688 83.056 33.4099 83.203 33.604L83.285 33.699Z" fill="white"/>
<path d="M25 -2.18557e-06C11.1929 -3.39263e-06 3.39263e-06 11.1929 2.18557e-06 25C9.78513e-07 38.8071 11.1929 50 25 50C38.8071 50 50 38.8071 50 25C50 11.1929 38.8071 -9.78513e-07 25 -2.18557e-06Z" fill="black" fill-opacity="0.2"/>
<path d="M27.715 16.301C27.5448 16.1269 27.3168 16.0209 27.074 16.0028C26.8312 15.9848 26.5901 16.056 26.396 16.203L26.301 16.285L18.301 24.102C18.1288 24.2703 18.0231 24.495 18.0032 24.7349C17.9834 24.9748 18.0508 25.2138 18.193 25.408L18.273 25.504L25.996 33.686C26.1705 33.8711 26.409 33.9827 26.663 33.9982C26.9169 34.0136 27.1672 33.9316 27.3628 33.769C27.5584 33.6064 27.6847 33.3753 27.716 33.1228C27.7472 32.8703 27.6811 32.6154 27.531 32.41L27.451 32.314L20.402 24.845L27.699 17.715C27.8731 17.5448 27.9791 17.3169 27.9972 17.074C28.0152 16.8312 27.944 16.5901 27.797 16.396L27.715 16.301Z" fill="white"/>
</svg>
