<svg width="12" height="12" viewBox="0 0 12 12" fill="none" xmlns="http://www.w3.org/2000/svg">
<path d="M6.86502 1.75507L7.74502 3.51507C7.86502 3.76007 8.18502 3.99507 8.45502 4.04007L10.05 4.30507C11.07 4.47507 11.31 5.21507 10.575 5.94507L9.33502 7.18507C9.12502 7.39507 9.01002 7.80007 9.07502 8.09007L9.43002 9.62507C9.71002 10.8401 9.06502 11.3101 7.99002 10.6751L6.49502 9.79007C6.22502 9.63007 5.78002 9.63007 5.50502 9.79007L4.01002 10.6751C2.94002 11.3101 2.29002 10.8351 2.57002 9.62507L2.92502 8.09007C2.99002 7.80007 2.87502 7.39507 2.66502 7.18507L1.42502 5.94507C0.695016 5.21507 0.930016 4.47507 1.95002 4.30507L3.54502 4.04007C3.81002 3.99507 4.13002 3.76007 4.25002 3.51507L5.13002 1.75507C5.61002 0.800068 6.39002 0.800068 6.86502 1.75507Z" fill="#F2BC1B" stroke="#F2BC1B" stroke-width="1.5" stroke-linecap="round" stroke-linejoin="round"/>
</svg>
