<svg width="612" height="810" viewBox="0 0 612 810" fill="none" xmlns="http://www.w3.org/2000/svg">
<path d="M100.73 735H79.226L77.562 694.808C77.306 686.872 77.0073 680.856 76.666 676.76H76.282C75.258 680.003 74.0633 685.037 72.698 691.864L72.058 695.064L63.226 735H41.722L34.298 699.032L33.018 692.632C31.226 684.696 29.9887 679.405 29.306 676.76H28.922C28.5807 681.027 28.282 687.981 28.026 697.624C27.9407 698.221 27.898 699.16 27.898 700.44L26.746 735H5.114L8.186 662.04H44.794L51.066 693.528L52.602 701.976C53.2847 699.331 53.9247 696.387 54.522 693.144L60.41 662.04H97.786L100.73 735ZM146.359 736.664C133.644 736.664 124.087 733.677 117.687 727.704C111.372 721.645 108.215 711.96 108.215 698.648C108.215 685.592 111.714 676.077 118.711 670.104C125.708 664.131 134.967 661.144 146.487 661.144C170.722 661.144 182.839 673.219 182.839 697.368C182.839 709.571 179.852 719.171 173.879 726.168C167.991 733.165 158.818 736.664 146.359 736.664ZM145.847 721.56C148.236 721.56 150.242 721.176 151.863 720.408C153.484 719.555 154.764 718.104 155.703 716.056C157.495 712.557 158.391 706.84 158.391 698.904C158.391 691.139 157.495 685.507 155.703 682.008C153.911 678.424 150.626 676.547 145.847 676.376C144.055 676.376 142.178 676.589 140.215 677.016C138.338 677.357 137.143 677.869 136.631 678.552C135.607 679.747 134.796 682.307 134.199 686.232C133.687 690.072 133.431 694.296 133.431 698.904C133.431 706.072 134.114 711.32 135.479 714.648C136.418 717.123 137.74 718.915 139.447 720.024C141.154 721.048 143.287 721.56 145.847 721.56ZM214.401 705.56V735H193.025V662.04H214.657L233.985 691.48C236.886 695.832 239.105 699.501 240.641 702.488H241.025V690.2V662.04H262.273V735H240.513L220.673 704.28L214.913 695.576H214.529L214.401 705.56ZM295.892 681.752C295.892 683.544 296.788 684.952 298.58 685.976C300.457 687 303.359 688.109 307.284 689.304C311.977 690.84 315.817 692.333 318.804 693.784C321.876 695.235 324.521 697.496 326.74 700.568C329.044 703.64 330.196 707.651 330.196 712.6C330.196 728.472 319.871 736.408 299.22 736.408C295.807 736.408 291.625 736.109 286.676 735.512C281.812 734.915 277.375 734.147 273.364 733.208C273.535 731.416 273.876 728.813 274.388 725.4C274.985 721.901 275.54 719.299 276.052 717.592C279.039 718.019 283.519 718.531 289.492 719.128C295.551 719.725 300.116 720.024 303.188 720.024C304.98 720.024 306.047 719.896 306.388 719.64C306.9 719.299 307.284 718.744 307.54 717.976C307.881 717.123 308.052 716.397 308.052 715.8C308.052 714.093 307.241 712.813 305.62 711.96C303.999 711.021 301.225 709.912 297.3 708.632C292.607 707.181 288.724 705.688 285.652 704.152C282.58 702.616 279.892 700.227 277.588 696.984C275.284 693.741 274.132 689.475 274.132 684.184C274.132 680.429 274.985 676.76 276.692 673.176C278.399 669.507 280.148 667.032 281.94 665.752C283.305 664.813 286.121 663.917 290.388 663.064C294.655 662.211 298.665 661.784 302.42 661.784C311.977 661.784 319.785 662.68 325.844 664.472C325.759 666.179 325.46 668.525 324.948 671.512C324.521 674.499 324.052 677.229 323.54 679.704L320.596 679.576C309.503 678.808 302.42 678.424 299.348 678.424C298.068 678.424 297.343 678.467 297.172 678.552C296.831 678.723 296.532 679.107 296.276 679.704C296.02 680.301 295.892 680.984 295.892 681.752ZM377.547 735H354.507V678.04H333.899V662.04H398.155V678.04H377.547V735ZM404.885 662.04H458.005V677.4H427.925V690.712H453.269V704.536H427.925V719.384H457.877V735H404.885V662.04ZM534.207 735H510.015L505.663 716.568C505.492 715.885 505.194 714.733 504.767 713.112C504.426 711.405 503.999 710.168 503.487 709.4C502.975 708.547 502.25 707.992 501.311 707.736C498.922 707.821 495.423 707.864 490.815 707.864V735H467.775V662.68C478.1 661.912 487.743 661.528 496.703 661.528C504.81 661.528 511.38 662.211 516.415 663.576C521.45 664.856 525.204 667.117 527.679 670.36C530.239 673.517 531.519 677.869 531.519 683.416C531.519 688.621 530.324 692.717 527.935 695.704C525.546 698.605 521.706 700.355 516.415 700.952V701.72C519.402 701.976 521.876 702.957 523.839 704.664C525.887 706.285 527.252 708.376 527.935 710.936L534.207 735ZM490.815 693.4C491.583 693.485 493.076 693.528 495.295 693.528C501.866 693.528 505.706 692.973 506.815 691.864C507.839 690.84 508.351 688.451 508.351 684.696C508.351 681.197 507.412 678.808 505.535 677.528C503.743 676.248 500.756 675.608 496.575 675.608C495.636 675.608 493.716 675.693 490.815 675.864V693.4ZM584.265 719H563.017L559.177 735H535.625L559.177 662.04H589.257L611.785 735H588.105L584.265 719ZM573.513 677.784L565.961 704.792H581.193L574.025 677.784H573.513Z" fill="#3EAC62"/>
<path fill-rule="evenodd" clip-rule="evenodd" d="M304.5 609C472.671 609 609 472.671 609 304.5C609 136.329 472.671 0 304.5 0C136.329 0 0 136.329 0 304.5C0 419.635 63.8998 519.844 158.17 571.6L116.951 512.428L99.1082 465.361L201.644 502.989L211.847 475.185L85.2159 428.715L55.8166 351.161L233.44 416.344L243.643 388.54L41.9243 314.514L41.7324 314.008L63.1878 255.543L265.239 329.69L275.443 301.886L73.3912 227.738L94.9863 168.892L297.039 243.04L307.242 215.235L112.617 143.813L194.606 98.4863L312.444 141.73L334.229 199.197L367.045 109.695L394.346 119.707L361.551 209.151L415.26 179.459L533.098 222.702L566.306 310.302L371.682 238.88L361.478 266.684L563.53 340.832L541.935 399.68L339.883 325.532L329.679 353.336L531.731 427.484L510.276 485.949L509.802 486.212L308.082 412.186L297.879 439.99L475.502 505.173L402.919 545.3L276.287 498.829L266.084 526.634L368.62 564.262L324.567 588.616L259.869 605.752C274.436 607.892 289.339 609 304.5 609Z" fill="#3EAC62"/>
</svg>
